<?xml version="1.0" encoding="UTF-8"?>
<svg width="731px" height="634px" viewBox="0 0 731 634" version="1.1" xmlns="http://www.w3.org/2000/svg" xmlns:xlink="http://www.w3.org/1999/xlink">
    <title>Multiverse_Symbol_RGB_Navy</title>
    <g id="Downloads" stroke="none" stroke-width="1" fill="none" fill-rule="evenodd">
        <path d="M540.749,435.769 L492.369,435.769 L492.369,267.023 L389.932,435.769 L389.828,435.769 C389.828,435.769 389.8,435.75 389.791,435.769 L341.387,435.769 L341.387,266.175 L238.809,435.769 L190.293,435.769 L190.293,197.345 L238.636,197.345 L238.636,354.418 L333.983,197.345 L389.778,197.345 L389.778,355 L485.476,197.345 L540.749,197.345 L540.749,435.769 Z M548.287,0 L182.755,0 L0,316.558 L182.755,633.115 L548.287,633.115 L731.042,316.558 L548.287,0 L548.287,0 Z" id="Multiverse_Symbol_RGB_Navy" fill="#242456"></path>
        <g id="Multiverse_Notations_RGB_Navy-23"></g>
    </g>
</svg>